<svg xmlns="http://www.w3.org/2000/svg" enable-background="new 0 0 64 64" viewBox="0 0 64 64"><g id="Layer_1"><path fill="#28adc7" d="M10.03,1v3.36c1.94,0,3.52,0.97,3.52,2.17v4.77c0-1.2-1.58-2.17-3.52-2.17v7c1.94,0,3.52,0.97,3.52,2.17v4.77
			c0-1.2-1.58-2.17-3.52-2.17v7c1.94,0,3.52,0.97,3.52,2.17v4.77c0-1.2-1.58-2.17-3.52-2.17v7c1.94,0,3.52,0.97,3.52,2.17v4.77
			c0-1.2-1.58-2.17-3.52-2.17v7c1.94,0,3.52,0.97,3.52,2.17v4.77c0-1.2-1.58-2.17-3.52-2.17V63h31.13l10.2-10.2V1H10.03z
			 M45.24,26.84H19.16V8.35h26.08V26.84z"/><path d="M19.16,27.84h26.08c0.55,0,1-0.45,1-1V8.35c0-0.55-0.45-1-1-1H19.16c-0.55,0-1,0.45-1,1v18.48
			C18.16,27.39,18.61,27.84,19.16,27.84z M20.16,9.35h24.08v16.48H20.16V9.35z"/><path d="M40.23 20.84H24.16c-.55 0-1 .45-1 1s.45 1 1 1h16.08c.55 0 1-.45 1-1S40.79 20.84 40.23 20.84zM40.23 12.35H24.16c-.55 0-1 .45-1 1s.45 1 1 1h16.08c.55 0 1-.45 1-1S40.79 12.35 40.23 12.35zM36.91 18.59c.55 0 1-.45 1-1s-.45-1-1-1h-9.42c-.55 0-1 .45-1 1s.45 1 1 1H36.91z"/><path d="M9.03,61.46V63c0,0.55,0.45,1,1,1h47.46c0.55,0,1-0.45,1-1V1c0-0.55-0.45-1-1-1H10.03c-0.55,0-1,0.45-1,1v2.43
			c-2.04,0.31-3.52,1.56-3.52,3.1v4.77c0,1.54,1.48,2.79,3.52,3.1v0.8c-2.04,0.31-3.52,1.56-3.52,3.1v4.77
			c0,1.54,1.48,2.79,3.52,3.1v0.8c-2.04,0.31-3.52,1.56-3.52,3.1v4.77c0,1.54,1.48,2.79,3.52,3.1v0.8c-2.04,0.31-3.52,1.56-3.52,3.1
			v4.77c0,1.54,1.48,2.79,3.52,3.1v0.8c-2.04,0.31-3.52,1.56-3.52,3.1v4.77C5.51,59.9,6.99,61.15,9.03,61.46z M50.36,55.21V62h-6.79
			L50.36,55.21z M11.03,2h39.33v49.8h-9.2c-0.55,0-1,0.45-1,1V62H11.03v-4.71c0.45,0.1,1.04,0.34,1.35,0.7
			C12.39,58,12.39,58,12.4,58.01c0.06,0.07,0.11,0.16,0.14,0.25c0,0,0,0.01,0,0.01c0.01,0.02,0.01,0.06,0.01,0.08c0,0.55,0.45,1,1,1
			s1-0.45,1-1c0-5.2,0.02-4.91-0.05-5.24c-0.16-0.8-0.71-1.43-1.39-1.87c-0.61-0.4-1.34-0.65-2.08-0.76v-4.96
			c0.49,0.11,1.19,0.4,1.44,0.82c0,0.01,0.01,0.01,0.01,0.02c0.02,0.04,0.04,0.08,0.05,0.13c0,0,0,0.01,0,0.01
			c0.01,0.02,0.01,0.06,0.01,0.08c0,0.55,0.45,1,1,1s1-0.45,1-1c0-3.86,0-4.79-0.01-4.92c-0.03-0.4-0.15-0.76-0.35-1.11
			c-0.63-1.06-1.93-1.65-3.16-1.84v-4.96c0.33,0.07,0.71,0.22,1.01,0.41c0.2,0.13,0.44,0.34,0.5,0.56c0,0,0,0.01,0,0.01
			c0.01,0.02,0.01,0.06,0.01,0.08c0,0.55,0.45,1,1,1s1-0.45,1-1c0-5.11,0.03-4.98-0.09-5.41c-0.17-0.61-0.57-1.11-1.07-1.5
			c-0.67-0.52-1.53-0.83-2.36-0.96V22c0.05,0.01,0.06,0.01,0.15,0.04c0,0,0,0,0,0c0.42,0.11,0.75,0.28,0.97,0.45
			c0.18,0.14,0.4,0.36,0.4,0.58c0,0.55,0.45,1,1,1s1-0.45,1-1c0-5.18,0.02-4.92-0.05-5.24c-0.15-0.71-0.6-1.3-1.19-1.73
			c-0.64-0.48-1.48-0.78-2.29-0.9v-4.96c0.46,0.11,1.02,0.33,1.33,0.68c0.1,0.1,0.19,0.25,0.19,0.39c0,0.55,0.45,1,1,1s1-0.45,1-1
			c0-3.86,0-4.79-0.01-4.92c-0.05-0.71-0.41-1.34-0.94-1.81c-0.7-0.63-1.63-0.99-2.57-1.13V2z M7.51,6.53
			c0-0.47,1.01-1.17,2.52-1.17s2.52,0.71,2.52,1.17v2.12c-1.47-0.68-3.48-0.72-5.04,0V6.53z M7.51,18.3c0-0.47,1.01-1.17,2.52-1.17
			s2.52,0.71,2.52,1.17v2.12c-1.55-0.72-3.59-0.68-5.04,0V18.3z M7.51,30.06c0-0.47,1.01-1.18,2.52-1.18c1.04,0,2.52,0.49,2.52,1.18
			v2.12c-1.46-0.67-3.47-0.72-5.04,0V30.06z M10.03,40.65c1.52,0,2.52,0.71,2.52,1.17v2.12c-1.49-0.69-3.52-0.71-5.04,0v-2.12
			C7.51,41.36,8.52,40.65,10.03,40.65z M10.03,52.42c1.52,0,2.52,0.71,2.52,1.17v2.12c-1.49-0.69-3.52-0.71-5.04,0v-2.12
			C7.51,53.12,8.52,52.42,10.03,52.42z"/></g></svg>