<svg xmlns="http://www.w3.org/2000/svg" width="425.197" height="425.197" enable-background="new 12.401 12.401 425.197 425.197" version="1" viewBox="12.401 12.401 425.197 425.197"><path fill="#27AAE0" d="M328.136,197.213c-4.264,0-8.43,0.407-12.48,1.146c-3.463-47.059-42.711-84.171-90.655-84.171
			c-47.948,0-87.198,37.117-90.655,84.183c-4.068-0.747-8.252-1.157-12.536-1.157c-38.125,0-69.032,30.963-69.032,69.088
			c0,37.96,30.641,69.199,68.538,69.199c0,0,205.842,0,206.821,0c38.156,0,69.087-30.988,69.087-69.144
			C397.223,228.2,366.292,197.213,328.136,197.213z"/><polygon fill="#FFF" points="277.587 225.232 259.112 225.232 284.481 260.213 259.12 295.193 277.595 295.193 302.958 260.213"/><polygon fill="#FFF" points="172.386 225.232 190.864 225.232 165.495 260.213 190.858 295.193 172.382 295.193 147.021 260.213"/><path fill="#FFF" d="M209.134,295.122l25.045-69.952h6.105l-25.137,69.952H209.134z"/></svg>