<svg xmlns="http://www.w3.org/2000/svg" id="Layer_1" enable-background="new 0 0 64 64" viewBox="0 0 64 64"><polygon fill="#58575d" points="42.5 15.5 16.5 15.5 8.5 15.5 8.5 49.5 55.5 49.5 55.5 15.5"/><polyline fill="#3c9bd6" points="42.5 18.5 52.5 18.5 52.5 40.5 11.5 40.5 11.5 18.5 16.5 18.5"/><polygon fill="#e1e2e7" points="42.5 43.486 16.5 43.486 8.5 43.486 8.5 49.5 55.5 49.5 55.5 43.486"/><path fill="#e1e2e7" d="M37.5,32.5c0-0.727,0.418-1.35,1.022-1.661c-0.198-0.643-0.066-1.366,0.442-1.875   c0.509-0.509,1.232-0.64,1.875-0.442C41.15,27.918,41.773,27.5,42.5,27.5v-21h-26v27h21.296C37.61,33.211,37.5,32.87,37.5,32.5z"/><polygon fill="#58575d" points="16.5 6.5 16.5 10.5 42.5 10.5 42.5 9.611 42.5 6.5"/><rect width="13" height="8" x="25.5" y="49.5" fill="#e1e2e7"/><path fill="#79c8a1" d="M47.5,32.5c0-0.727-0.418-1.35-1.022-1.661c0.198-0.643,0.066-1.366-0.442-1.875   c-0.509-0.509-1.232-0.64-1.875-0.442C43.85,27.918,43.227,27.5,42.5,27.5s-1.35,0.418-1.661,1.022   c-0.643-0.198-1.366-0.066-1.875,0.442c-0.508,0.508-0.64,1.232-0.442,1.875C37.918,31.15,37.5,31.773,37.5,32.5   s0.418,1.35,1.022,1.661c-0.198,0.643-0.066,1.366,0.442,1.875s1.232,0.64,1.875,0.442C41.15,37.082,41.773,37.5,42.5,37.5   s1.35-0.418,1.661-1.022c0.643,0.198,1.366,0.066,1.875-0.442s0.64-1.232,0.442-1.875C47.082,33.85,47.5,33.227,47.5,32.5z"/><rect width="5" height="2" x="29.5" y="45.5" fill="#58575d"/><polygon fill="#fede4c" points="32.5 16.655 26.5 20.119 26.5 27.047 32.5 30.511 38.5 27.047 38.5 20.119"/><polygon fill="#fee473" points="32.5 30.511 38.5 27.047 38.492 20.119 32.492 23.583"/><polygon fill="#feea98" points="32.5 23.562 38.482 20.108 32.5 16.655 26.518 20.108"/><g><path d="M26,19.848v7.291l6.5,3.753l6.5-3.753v-7.291l-6.5-3.752L26,19.848z M37.439,20.101L32.5,22.952l-4.939-2.851L32.5,17.25   L37.439,20.101z M27,20.931l5,2.886v5.631l-5-2.887V20.931z M33,29.449v-5.631l5-2.886v5.63L33,29.449z"/><rect width="17" height="1" x="18" y="8"/><rect width="21" height="1" x="19" y="13"/><rect width="1" height="1" x="40" y="8"/><rect width="1" height="1" x="38" y="8"/><rect width="1" height="1" x="36" y="8"/><path d="M56,50V15H43v-4v-1V6H16v4v1v4H8v35h17v7h-7v1h7h14h7v-1h-7v-7H56z M38.751,31.283l0.372-0.191l0,0l0,0L39,30.692   c-0.156-0.505-0.037-1.019,0.318-1.374c0.355-0.354,0.871-0.473,1.375-0.318l0.4,0.123l0.192-0.372   C41.522,28.288,41.988,28,42.5,28s0.978,0.288,1.216,0.751l0.192,0.372l0.4-0.123c0.504-0.155,1.019-0.038,1.375,0.318   c0.354,0.355,0.474,0.869,0.318,1.374l-0.123,0.4l0.372,0.191C46.712,31.522,47,31.988,47,32.5s-0.288,0.978-0.751,1.217   l-0.372,0.191l0.123,0.4c0.156,0.505,0.037,1.019-0.318,1.374c-0.355,0.354-0.87,0.474-1.374,0.318l-0.4-0.123l-0.191,0.372   C43.478,36.712,43.012,37,42.5,37s-0.978-0.288-1.217-0.751l-0.191-0.372L40.692,36c-0.505,0.157-1.019,0.037-1.374-0.318   c-0.354-0.355-0.474-0.869-0.318-1.374l0.123-0.4l-0.372-0.191c-0.225-0.116-0.406-0.287-0.535-0.489   c-0.07-0.109-0.124-0.226-0.16-0.348l0-0.001C38.019,32.756,38,32.629,38,32.5C38,31.988,38.288,31.522,38.751,31.283z    M37.958,34.397c-0.104,0.733,0.131,1.47,0.652,1.992c0.521,0.521,1.257,0.754,1.992,0.652C41.046,37.641,41.744,38,42.5,38   s1.454-0.359,1.897-0.958c0.73,0.102,1.47-0.131,1.992-0.652c0.521-0.521,0.756-1.258,0.652-1.992C47.641,33.954,48,33.256,48,32.5   s-0.359-1.454-0.958-1.897c0.104-0.733-0.131-1.47-0.652-1.992c-0.522-0.521-1.26-0.759-1.992-0.652   c-0.344-0.464-0.84-0.778-1.397-0.899V19h9v21H12V19h4v15h21.543C37.664,34.147,37.802,34.282,37.958,34.397z M17,7h25v3H17V7z    M42,11v16.053c-0.01,0.002-0.02,0.007-0.031,0.01c-0.036,0.008-0.069,0.023-0.104,0.033c-0.125,0.035-0.247,0.079-0.364,0.134   c-0.05,0.023-0.097,0.05-0.145,0.077c-0.101,0.057-0.197,0.121-0.289,0.192c-0.042,0.032-0.084,0.062-0.123,0.097   c-0.12,0.106-0.233,0.222-0.331,0.353c-0.003,0.004-0.007,0.006-0.01,0.01c-0.052-0.008-0.104,0-0.156-0.005   c-0.131-0.01-0.262-0.022-0.391-0.011c-0.542,0.046-1.053,0.277-1.444,0.668c-0.521,0.521-0.756,1.258-0.652,1.992   C37.359,31.046,37,31.744,37,32.5c0,0.169,0.018,0.336,0.054,0.5H17V19v-1v-7H42z M16,16v2h-5v23h42V18H43v-2h12v26.986H9V16H16z    M9,49v-5.014h46V49H39H25H9z M38,57H26v-7h12V57z"/><polygon points="23.404 18.025 22.697 17.318 20.447 19.568 19.697 18.818 18.99 19.525 20.447 20.982"/><polygon points="23.404 22.025 22.697 21.318 20.447 23.568 19.697 22.818 18.99 23.525 20.447 24.982"/><polygon points="23.404 26.025 22.697 25.318 20.447 27.568 19.697 26.818 18.99 27.525 20.447 28.982"/><polygon points="44.582 31.5 43.875 30.793 41.75 32.918 41 32.168 40.293 32.875 41.75 34.332"/><path d="M29,48h6v-3h-6V48z M30,46h4v1h-4V46z"/></g></svg>