<svg xmlns="http://www.w3.org/2000/svg" data-name="Layer 1" viewBox="0 0 512 512"><g data-name=" Group 2"><path fill="#00efd1" d="M410.32,89.86V431.48H366.8l.29-34.02a58.658,58.658,0,1,0-80.31-.4l-.01.01.43,34.41H101.68V14H337.41V89.86ZM286.6,248V183.94a32.636,32.636,0,0,0-32.62-32.63,43.513,43.513,0,0,1-70.13,0,32.629,32.629,0,0,0-32.62,32.63V248ZM255.17,100.41a36.26,36.26,0,1,0-36.26,36.26A36.255,36.255,0,0,0,255.17,100.41Z"/><polygon fill="#00acea" points="337.41 14 410.32 89.86 337.41 89.86 337.41 14"/><path fill="#00acea" d="M367.09,397.46a58.644,58.644,0,1,1,18.71-42.94A58.437,58.437,0,0,1,367.09,397.46Zm-7.41-42.94a32.535,32.535,0,1,0-32.54,32.54A32.535,32.535,0,0,0,359.68,354.52Z"/><path fill="#f4b844" d="M367.09,397.46l-.29,34.02L366.25,498l-39.11-28.08L288.04,498l-.84-66.52-.43-34.41.01-.01a58.631,58.631,0,0,0,80.31.4Z"/><path fill="#fedb41" d="M327.14 321.98a32.54 32.54 0 1 1-32.53 32.54A32.535 32.535 0 0 1 327.14 321.98zM286.6 183.94V248H151.23V183.94a32.629 32.629 0 0 1 32.62-32.63 43.513 43.513 0 0 0 70.13 0A32.636 32.636 0 0 1 286.6 183.94z"/><circle cx="218.91" cy="100.41" r="36.26" fill="#fedb41"/><path fill="#083863" d="M343.178,8.457A8,8,0,0,0,337.41,6H101.68A7.733,7.733,0,0,0,94,14V431.48a7.335,7.335,0,0,0,7.68,7.52H279.3l.738,58.861a8.181,8.181,0,0,0,4.393,7.16,7.994,7.994,0,0,0,8.273-.583l34.434-24.7,34.443,24.745a7.992,7.992,0,0,0,8.288.645,8.369,8.369,0,0,0,4.378-7.305L374.739,439H410.32a7.335,7.335,0,0,0,7.68-7.52V89.86a7.855,7.855,0,0,0-2.072-5.544ZM345,33.869,391.535,82H345Zm-17.86,270a50.65,50.65,0,1,1-34.851,87.389l-.006-.006A50.138,50.138,0,0,1,276.49,354.52,50.708,50.708,0,0,1,327.14,303.87Zm4.666,159.551a8,8,0,0,0-9.333,0l-26.627,19.123-.877-69.66a66.609,66.609,0,0,0,63.987.2l-.578,69.419ZM374.873,423l.189-22.4A66.634,66.634,0,0,0,327.14,287.64,68.276,68.276,0,0,0,281.159,306H152.6a8,8,0,0,0,0,16H268.8a68.77,68.77,0,0,0-8.308,32.49c0,.4.024.51.031,1.51H152.6a8,8,0,0,0,0,16H262.714a68.63,68.63,0,0,0,16.1,28.308L279.1,423H110V22H329V89.86A8.48,8.48,0,0,0,337.41,98H402V423Z"/><path fill="#083863" d="M218.91,144.67a44.26,44.26,0,1,0-44.26-44.26A44.31,44.31,0,0,0,218.91,144.67Zm0-72.52a28.26,28.26,0,1,1-28.26,28.26A28.293,28.293,0,0,1,218.91,72.15Z"/><path fill="#083863" d="M253.984 143h0a8.151 8.151 0 0 0-6.445 3.416 35.325 35.325 0 0 1-57.239-.038A8.113 8.113 0 0 0 183.85 143h0A41.14 41.14 0 0 0 143 183.94V248a8.2 8.2 0 0 0 8.23 8H286.6c4.418 0 8.4-3.582 8.4-8V183.94A41.287 41.287 0 0 0 253.984 143zM279 240H159V183.94a24.777 24.777 0 0 1 21.126-24.364 51.667 51.667 0 0 0 69.234 7.48 53.145 53.145 0 0 0 8.4-7.48A24.877 24.877 0 0 1 279 183.94zM327.14 395.06a40.54 40.54 0 1 0-40.53-40.54A40.586 40.586 0 0 0 327.14 395.06zm0-65.08a24.54 24.54 0 1 1-24.53 24.54A24.568 24.568 0 0 1 327.14 329.98z"/></g></svg>