<svg xmlns="http://www.w3.org/2000/svg" enable-background="new 0 0 64 64" viewBox="0 0 64 64"><path fill="#231f5c" d="M49.45,3.34C49.39,3.31,42.22,0,33.55,0c-6.99,0-12.99,2.09-17.79,6.17c-0.31,0.22-7.51,5.48-6.22,17.89
		c0.04,0.37-0.05,0.71-0.32,1.08l-5.18,8.81c-0.39,0.55-0.59,1.19-0.58,1.84c0.04,2.09,1.48,2.53,3.38,3.02
		C6.07,40,6.26,41.65,7.27,42.64c-0.36,0.52-0.54,1.14-0.5,1.78c0.04,0.6,0.28,1.48,1.25,2.32c0.05,0.04,0.1,0.08,0.17,0.12
		c-0.42,0.5-0.66,1.13-0.7,1.79c-0.17,3.47,1.53,5.92,4.43,6.39l0.08,0.01l6.26,0.34c0.03,0,0.79,0.12,1.18,1.7
		c0.01,0.03,0.74,3.27,1.47,5.03C21.38,63.26,22.5,64,23.75,64h28.56c0.99,0,1.89-0.46,2.48-1.26c0.58-0.8,0.75-1.8,0.45-2.74
		c-1.04-3.29-2.12-9.43-2.14-9.49c-0.41-2.37-0.49-4.6-0.23-6.62c0.32-2.38,1.45-4.74,3.28-6.81c3.89-4.43,4.02-9.12,3.99-10.2
		C63.03,9.69,49.53,3.37,49.45,3.34z M56.94,26.46c-0.04,0.16-0.04,0.29-0.04,0.4v0.08l0.01,0.02c0.01,0.42,0.04,4.32-3.19,7.98
		c-2.26,2.58-3.66,5.53-4.04,8.53c-0.3,2.33-0.22,4.88,0.26,7.62c0.19,1.06,1.16,6.41,2.17,9.67H23.85
		c-0.59-1.48-1.25-4.37-1.26-4.42c-0.81-3.31-3.1-4.19-4.16-4.19c0,0-6.02-0.32-6.02-0.32c-1.18-0.2-1.75-1.18-1.69-2.94
		c0.89-0.96,0.97-1.9,0.87-2.52c-0.18-1.1-0.99-1.79-1.46-2.11c0.79-1,1.02-2.03,0.65-2.9c-0.2-0.49-0.55-0.87-1.02-1.11
		c0.11-0.21,0.21-0.41,0.28-0.63c0.26-0.78,0.17-1.61-0.23-2.36c-0.41-0.75-1.13-1.31-2.03-1.54c-0.21-0.05-0.58-0.15-0.9-0.24
		l5.05-8.56c0.65-0.91,0.95-2.04,0.83-3.19c-1.07-10.23,4.34-14.52,4.99-15c4.29-3.64,9.63-5.49,15.86-5.49
		c7.49,0,13.77,2.71,14.47,3.03C48.54,6.49,59.45,11.97,56.94,26.46z"/><path fill="#231f5c" d="M33.9,10.19c-7.32,0-13.27,5.95-13.27,13.27c0,7.31,5.95,13.26,13.27,13.26c7.31,0,13.26-5.95,13.26-13.26
		C47.16,16.13,41.21,10.19,33.9,10.19z M30.16,25.42c0.4,0.34,0.44,0.94,0.09,1.34c-0.18,0.21-0.45,0.32-0.71,0.32
		c-0.22,0-0.45-0.08-0.63-0.24l-2.84-2.49c-0.21-0.18-0.32-0.45-0.32-0.71c0-0.28,0.11-0.54,0.32-0.72l2.84-2.49
		c0.4-0.35,1-0.3,1.34,0.09c0.35,0.4,0.31,1-0.09,1.34l-2.03,1.79L30.16,25.42z M36.46,17.56l-3.29,12.27
		c-0.11,0.43-0.49,0.71-0.91,0.71c-0.09,0-0.17-0.02-0.25-0.04c-0.51-0.13-0.81-0.66-0.67-1.16l3.29-12.27
		c0.13-0.51,0.66-0.81,1.17-0.67C36.29,16.53,36.6,17.06,36.46,17.56z M41.73,24.36l-2.84,2.49c-0.18,0.16-0.4,0.24-0.63,0.24
		c-0.27,0-0.52-0.11-0.71-0.32c-0.35-0.4-0.3-1,0.09-1.34l2.03-1.78l-2.03-1.79c-0.39-0.34-0.44-0.94-0.09-1.34
		c0.34-0.39,0.94-0.44,1.34-0.09l2.84,2.49c0.21,0.18,0.32,0.45,0.32,0.72C42.05,23.91,41.94,24.18,41.73,24.36z"/></svg>