<svg xmlns="http://www.w3.org/2000/svg" data-name="Layer 1" viewBox="0 0 512 512"><g data-name="&lt;Group&gt;"><path fill="#00acea" d="M488.99,366.83v30.76a40,40,0,0,1-40,40H63.01a40,40,0,0,1-40-40V366.83H197.32l8.12,8.81a39.983,39.983,0,0,0,29.41,12.89h42.3a39.983,39.983,0,0,0,29.41-12.89l8.12-8.81H488.99Z" data-name="&lt;Group&gt;"/><path fill="#fedb41" d="M467.85,366.78v.05H428.38V116.71H83.62V366.83H44.15V114.41a40,40,0,0,1,40-40h343.7a40,40,0,0,1,40,40Z" data-name="&lt;Group&gt;"/><path fill="#00efd1" d="M428.38,366.19v.64H314.68l-8.12,8.81a39.983,39.983,0,0,1-29.41,12.89h-42.3a39.983,39.983,0,0,1-29.41-12.89l-8.12-8.81H83.62V116.71H428.38ZM245.32,321.72V190.28h-128V321.72Z" data-name="&lt;Group&gt;"/><path fill="#00acea" d="M245.32,190.28V321.72h-128V190.28ZM217,302.38V276.23a17.2,17.2,0,0,0-17.2-17.2,22.933,22.933,0,0,1-36.96,0,17.2,17.2,0,0,0-17.2,17.2v26.15Zm-16.57-73.65a19.11,19.11,0,1,0-19.11,19.12A19.109,19.109,0,0,0,200.43,228.73Z" data-name="&lt;Group&gt;"/><path fill="#fedb41" d="M217 276.23v26.15H145.64V276.23a17.2 17.2 0 0 1 17.2-17.2 22.933 22.933 0 0 0 36.96 0A17.2 17.2 0 0 1 217 276.23zM181.32 209.62a19.115 19.115 0 1 1-19.11 19.11A19.109 19.109 0 0 1 181.32 209.62z" data-name="&lt;Group&gt;"/></g><g data-name="&lt;Group&gt;"><g data-name=" Group "><g data-name="&lt;Group&gt;"><path fill="#083863" d="M488.99,359H476V114.41C476,87.942,454.317,66,427.85,66H84.15C57.683,66,36,87.942,36,114.41V359H23.01A7.866,7.866,0,0,0,15,366.83v30.76C15,424.057,36.542,446,63.01,446H448.99c26.468,0,48.01-21.943,48.01-48.41V366.83A7.866,7.866,0,0,0,488.99,359ZM52,114.41C52,96.766,66.506,82,84.15,82h343.7C445.494,82,460,96.766,460,114.41V359H436V116.71a7.441,7.441,0,0,0-7.62-7.71H83.62A7.441,7.441,0,0,0,76,116.71V359H52ZM420,359H314.68a7.923,7.923,0,0,0-5.883,2.493l-8.122,9A32.248,32.248,0,0,1,277.15,381h-42.3a32.292,32.292,0,0,1-23.527-10.547l-8.12-8.842A8.031,8.031,0,0,0,197.32,359H92V125H420Zm61,38.59c0,17.644-14.365,32.41-32.01,32.41H63.01C45.365,430,31,415.234,31,397.59V375H193.814l5.742,6.378A48.244,48.244,0,0,0,234.85,397h42.3a48.245,48.245,0,0,0,35.292-15.619L318.186,375H481Z" data-name="&lt;Compound Path&gt;"/><path fill="#083863" d="M181.32,255.85a27.115,27.115,0,1,0-27.11-27.12A27.145,27.145,0,0,0,181.32,255.85Zm0-38.23a11.115,11.115,0,1,1-11.11,11.11A11.123,11.123,0,0,1,181.32,217.62Z" data-name="&lt;Compound Path&gt;"/><path fill="#083863" d="M199.8,251.03a8,8,0,0,0-6.453,3.273,14.937,14.937,0,0,1-24.062-.012,7.669,7.669,0,0,0-6.265-3.261A25.076,25.076,0,0,0,138,276.23v26.15a7.383,7.383,0,0,0,7.64,7.62H217a7.685,7.685,0,0,0,8-7.62V276.23A25.229,25.229,0,0,0,199.8,251.03ZM209,294H154V276.23a9.06,9.06,0,0,1,5.884-8.65,30.619,30.619,0,0,0,43.094,0A9.177,9.177,0,0,1,209,276.23Z" data-name="&lt;Compound Path&gt;"/><path fill="#083863" d="M253,190a8,8,0,0,0-8-8H117a8,8,0,0,0-8,8V321a8,8,0,0,0,8,8H245a8,8,0,0,0,8-8Zm-128,8H237V314H125Z" data-name="&lt;Compound Path&gt;"/><path fill="#083863" d="M266.68 228h67.59a8 8 0 0 0 0-16H266.68a8 8 0 0 0 0 16zM266.68 264h128a8 8 0 1 0 0-16h-128a8 8 0 0 0 0 16zM266.68 300h128a8 8 0 1 0 0-16h-128a8 8 0 0 0 0 16z" data-name="&lt;Path&gt;"/></g></g></g></svg>